<svg width="120" height="120" viewBox="0 0 120 120" fill="none" xmlns="http://www.w3.org/2000/svg">
<path d="M50.6146 15.111L5.33317 94.7947C4.45481 96.3396 3.99509 98.0898 4.00004 99.8699C4.00499 101.65 4.47446 103.398 5.3614 104.938C6.24834 106.477 7.52162 107.756 9.05368 108.644C10.5857 109.533 12.3228 110 14.0908 110H105.905C107.683 110.001 109.431 109.529 110.97 108.631C112.509 107.733 113.784 106.441 114.668 104.887C115.551 103.332 116.011 101.57 116 99.7794C115.989 97.9886 115.508 96.2324 114.606 94.689L68.0653 15.0053C67.169 13.4722 65.8885 12.2029 64.3519 11.3245C62.8154 10.4462 61.0767 9.98949 59.3098 10.0002C57.5429 10.0109 55.8097 10.4886 54.2838 11.3855C52.7578 12.2824 51.4926 13.5671 50.6146 15.111Z" fill="#FFC737"/>
<path d="M59.5 94C61.9853 94 64 91.9853 64 89.5C64 87.0147 61.9853 85 59.5 85C57.0147 85 55 87.0147 55 89.5C55 91.9853 57.0147 94 59.5 94Z" fill="black"/>
<path d="M55 48.5307C55 47.3291 55.4741 46.1767 56.318 45.327C57.1619 44.4773 58.3065 44 59.5 44C60.6935 44 61.8381 44.4773 62.682 45.327C63.5259 46.1767 64 47.3291 64 48.5307V77.4693C64 78.6709 63.5259 79.8233 62.682 80.673C61.8381 81.5227 60.6935 82 59.5 82C58.3065 82 57.1619 81.5227 56.318 80.673C55.4741 79.8233 55 78.6709 55 77.4693V48.5307Z" fill="black"/>
</svg>
