<svg width="33" height="32" viewBox="0 0 33 32" fill="none" xmlns="http://www.w3.org/2000/svg">
<g id="error">
<g id="Group">
<g id="Group_2">
<path id="Vector" d="M13.9972 4.02943L1.92216 25.2784C1.68793 25.6904 1.56534 26.1571 1.56666 26.6318C1.56798 27.1065 1.69317 27.5725 1.92969 27.9832C2.16621 28.3938 2.50575 28.7347 2.9143 28.9716C3.32285 29.2086 3.78606 29.3332 4.25753 29.3332H28.7413C29.2156 29.3334 29.6815 29.2075 30.0919 28.968C30.5023 28.7285 30.8425 28.3841 31.0781 27.9696C31.3136 27.5551 31.4362 27.0852 31.4333 26.6077C31.4304 26.1301 31.3021 25.6618 31.0616 25.2502L18.6507 4.00126C18.4117 3.59242 18.0702 3.25395 17.6605 3.01972C17.2508 2.78548 16.7871 2.6637 16.3159 2.66655C15.8447 2.66941 15.3826 2.79679 14.9757 3.03597C14.5687 3.27515 14.2313 3.61773 13.9972 4.02943Z" fill="#FF3773"/>
</g>
</g>
<path id="Vector_2" d="M16.3667 25.0665C17.0295 25.0665 17.5667 24.5292 17.5667 23.8665C17.5667 23.2038 17.0295 22.6665 16.3667 22.6665C15.704 22.6665 15.1667 23.2038 15.1667 23.8665C15.1667 24.5292 15.704 25.0665 16.3667 25.0665Z" fill="white"/>
<path id="Vector_3" d="M15.1667 12.9416C15.1667 12.6212 15.2932 12.3138 15.5182 12.0873C15.7433 11.8607 16.0485 11.7334 16.3667 11.7334C16.685 11.7334 16.9902 11.8607 17.2153 12.0873C17.4403 12.3138 17.5667 12.6212 17.5667 12.9416V20.6585C17.5667 20.979 17.4403 21.2863 17.2153 21.5129C16.9902 21.7394 16.685 21.8667 16.3667 21.8667C16.0485 21.8667 15.7433 21.7394 15.5182 21.5129C15.2932 21.2863 15.1667 20.979 15.1667 20.6585V12.9416Z" fill="white"/>
</g>
</svg>
